<svg width="87" height="43" viewBox="0 0 87 43" fill="none" xmlns="http://www.w3.org/2000/svg">
<path d="M3.864 13.084C2.88 13.084 2.072 12.852 1.44 12.388C0.808 11.916 0.468 11.244 0.42 10.372H2.928C2.952 10.668 3.04 10.884 3.192 11.02C3.344 11.156 3.54 11.224 3.78 11.224C3.996 11.224 4.172 11.172 4.308 11.068C4.452 10.956 4.524 10.804 4.524 10.612C4.524 10.364 4.408 10.172 4.176 10.036C3.944 9.9 3.568 9.748 3.048 9.58C2.496 9.396 2.048 9.22 1.704 9.052C1.368 8.876 1.072 8.624 0.816 8.296C0.568 7.96 0.444 7.524 0.444 6.988C0.444 6.444 0.58 5.98 0.852 5.596C1.124 5.204 1.5 4.908 1.98 4.708C2.46 4.508 3.004 4.408 3.612 4.408C4.596 4.408 5.38 4.64 5.964 5.104C6.556 5.56 6.872 6.204 6.912 7.036H4.356C4.348 6.78 4.268 6.588 4.116 6.46C3.972 6.332 3.784 6.268 3.552 6.268C3.376 6.268 3.232 6.32 3.12 6.424C3.008 6.528 2.952 6.676 2.952 6.868C2.952 7.028 3.012 7.168 3.132 7.288C3.26 7.4 3.416 7.5 3.6 7.588C3.784 7.668 4.056 7.772 4.416 7.9C4.952 8.084 5.392 8.268 5.736 8.452C6.088 8.628 6.388 8.88 6.636 9.208C6.892 9.528 7.02 9.936 7.02 10.432C7.02 10.936 6.892 11.388 6.636 11.788C6.388 12.188 6.024 12.504 5.544 12.736C5.072 12.968 4.512 13.084 3.864 13.084ZM12.5414 6.208C13.3094 6.208 13.9174 6.468 14.3654 6.988C14.8214 7.5 15.0494 8.196 15.0494 9.076V13H12.6974V9.388C12.6974 9.004 12.5974 8.704 12.3974 8.488C12.1974 8.264 11.9294 8.152 11.5934 8.152C11.2414 8.152 10.9654 8.264 10.7654 8.488C10.5654 8.704 10.4654 9.004 10.4654 9.388V13H8.11341V4.12H10.4654V7.228C10.6734 6.924 10.9534 6.68 11.3054 6.496C11.6654 6.304 12.0774 6.208 12.5414 6.208ZM15.956 9.628C15.956 8.932 16.08 8.324 16.328 7.804C16.584 7.284 16.928 6.884 17.36 6.604C17.8 6.324 18.288 6.184 18.824 6.184C19.288 6.184 19.688 6.276 20.024 6.46C20.36 6.644 20.62 6.892 20.804 7.204V6.268H23.156V13H20.804V12.064C20.62 12.376 20.356 12.624 20.012 12.808C19.676 12.992 19.28 13.084 18.824 13.084C18.288 13.084 17.8 12.944 17.36 12.664C16.928 12.384 16.584 11.984 16.328 11.464C16.08 10.936 15.956 10.324 15.956 9.628ZM20.804 9.628C20.804 9.196 20.684 8.856 20.444 8.608C20.212 8.36 19.924 8.236 19.58 8.236C19.228 8.236 18.936 8.36 18.704 8.608C18.472 8.848 18.356 9.188 18.356 9.628C18.356 10.06 18.472 10.404 18.704 10.66C18.936 10.908 19.228 11.032 19.58 11.032C19.924 11.032 20.212 10.908 20.444 10.66C20.684 10.412 20.804 10.068 20.804 9.628ZM24.1122 9.628C24.1122 8.932 24.2362 8.324 24.4842 7.804C24.7402 7.284 25.0882 6.884 25.5282 6.604C25.9682 6.324 26.4562 6.184 26.9922 6.184C27.4242 6.184 27.8082 6.276 28.1442 6.46C28.4882 6.636 28.7562 6.88 28.9482 7.192V4.12H31.3122V13H28.9482V12.064C28.7642 12.376 28.5042 12.624 28.1682 12.808C27.8322 12.992 27.4362 13.084 26.9802 13.084C26.4442 13.084 25.9562 12.944 25.5162 12.664C25.0842 12.384 24.7402 11.984 24.4842 11.464C24.2362 10.936 24.1122 10.324 24.1122 9.628ZM28.9602 9.628C28.9602 9.196 28.8402 8.856 28.6002 8.608C28.3682 8.36 28.0802 8.236 27.7362 8.236C27.3842 8.236 27.0922 8.36 26.8602 8.608C26.6282 8.848 26.5122 9.188 26.5122 9.628C26.5122 10.06 26.6282 10.404 26.8602 10.66C27.0922 10.908 27.3842 11.032 27.7362 11.032C28.0802 11.032 28.3682 10.908 28.6002 10.66C28.8402 10.412 28.9602 10.068 28.9602 9.628ZM35.7845 13.084C35.1125 13.084 34.5085 12.944 33.9725 12.664C33.4445 12.384 33.0285 11.984 32.7245 11.464C32.4205 10.944 32.2685 10.332 32.2685 9.628C32.2685 8.932 32.4205 8.324 32.7245 7.804C33.0365 7.284 33.4565 6.884 33.9845 6.604C34.5205 6.324 35.1245 6.184 35.7965 6.184C36.4685 6.184 37.0685 6.324 37.5965 6.604C38.1325 6.884 38.5525 7.284 38.8565 7.804C39.1685 8.324 39.3245 8.932 39.3245 9.628C39.3245 10.324 39.1685 10.936 38.8565 11.464C38.5525 11.984 38.1325 12.384 37.5965 12.664C37.0605 12.944 36.4565 13.084 35.7845 13.084ZM35.7845 11.044C36.1125 11.044 36.3845 10.924 36.6005 10.684C36.8245 10.436 36.9365 10.084 36.9365 9.628C36.9365 9.172 36.8245 8.824 36.6005 8.584C36.3845 8.344 36.1165 8.224 35.7965 8.224C35.4765 8.224 35.2085 8.344 34.9925 8.584C34.7765 8.824 34.6685 9.172 34.6685 9.628C34.6685 10.092 34.7725 10.444 34.9805 10.684C35.1885 10.924 35.4565 11.044 35.7845 11.044ZM50.2294 6.268L48.5134 13H45.8734L44.9374 8.92L43.9654 13H41.3374L39.6334 6.268H41.9734L42.7294 10.732L43.7254 6.268H46.2454L47.2774 10.744L48.0214 6.268H50.2294ZM54.1266 10.78L55.3866 6.268H57.8946L55.5786 13H52.6506L50.3346 6.268H52.8426L54.1266 10.78ZM65.1235 9.556C65.1235 9.74 65.1115 9.924 65.0875 10.108H60.6355C60.6595 10.476 60.7595 10.752 60.9355 10.936C61.1195 11.112 61.3515 11.2 61.6315 11.2C62.0235 11.2 62.3035 11.024 62.4715 10.672H64.9795C64.8755 11.136 64.6715 11.552 64.3675 11.92C64.0715 12.28 63.6955 12.564 63.2395 12.772C62.7835 12.98 62.2795 13.084 61.7275 13.084C61.0635 13.084 60.4715 12.944 59.9515 12.664C59.4395 12.384 59.0355 11.984 58.7395 11.464C58.4515 10.944 58.3075 10.332 58.3075 9.628C58.3075 8.924 58.4515 8.316 58.7395 7.804C59.0275 7.284 59.4275 6.884 59.9395 6.604C60.4595 6.324 61.0555 6.184 61.7275 6.184C62.3915 6.184 62.9795 6.32 63.4915 6.592C64.0035 6.864 64.4035 7.256 64.6915 7.768C64.9795 8.272 65.1235 8.868 65.1235 9.556ZM62.7235 8.968C62.7235 8.68 62.6275 8.456 62.4355 8.296C62.2435 8.128 62.0035 8.044 61.7155 8.044C61.4275 8.044 61.1915 8.124 61.0075 8.284C60.8235 8.436 60.7035 8.664 60.6475 8.968H62.7235ZM68.4381 7.456C68.7021 7.072 69.0221 6.768 69.3981 6.544C69.7741 6.32 70.1781 6.208 70.6101 6.208V8.716H69.9501C69.4381 8.716 69.0581 8.816 68.8101 9.016C68.5621 9.216 68.4381 9.564 68.4381 10.06V13H66.0861V6.268H68.4381V7.456ZM74.3213 13.084C73.7133 13.084 73.1693 12.984 72.6893 12.784C72.2173 12.576 71.8413 12.296 71.5613 11.944C71.2893 11.584 71.1373 11.18 71.1053 10.732H73.3853C73.4173 10.948 73.5173 11.116 73.6853 11.236C73.8533 11.356 74.0613 11.416 74.3092 11.416C74.5013 11.416 74.6533 11.376 74.7653 11.296C74.8773 11.216 74.9333 11.112 74.9333 10.984C74.9333 10.816 74.8413 10.692 74.6573 10.612C74.4733 10.532 74.1693 10.444 73.7453 10.348C73.2653 10.252 72.8653 10.144 72.5452 10.024C72.2253 9.904 71.9453 9.708 71.7053 9.436C71.4733 9.164 71.3573 8.796 71.3573 8.332C71.3573 7.932 71.4653 7.572 71.6813 7.252C71.8973 6.924 72.2133 6.664 72.6293 6.472C73.0533 6.28 73.5613 6.184 74.1533 6.184C75.0333 6.184 75.7253 6.4 76.2293 6.832C76.7333 7.264 77.0253 7.832 77.1053 8.536H74.9813C74.9413 8.32 74.8453 8.156 74.6933 8.044C74.5493 7.924 74.3533 7.864 74.1053 7.864C73.9133 7.864 73.7653 7.9 73.6613 7.972C73.5653 8.044 73.5173 8.144 73.5173 8.272C73.5173 8.432 73.6093 8.556 73.7933 8.644C73.9773 8.724 74.2733 8.808 74.6813 8.896C75.1693 9 75.5733 9.116 75.8933 9.244C76.2213 9.372 76.5053 9.58 76.7453 9.868C76.9933 10.148 77.1172 10.532 77.1172 11.02C77.1172 11.412 77.0013 11.764 76.7693 12.076C76.5453 12.388 76.2213 12.636 75.7973 12.82C75.3813 12.996 74.8893 13.084 74.3213 13.084ZM84.7056 9.556C84.7056 9.74 84.6936 9.924 84.6696 10.108H80.2176C80.2416 10.476 80.3416 10.752 80.5176 10.936C80.7016 11.112 80.9336 11.2 81.2136 11.2C81.6056 11.2 81.8856 11.024 82.0536 10.672H84.5616C84.4576 11.136 84.2536 11.552 83.9496 11.92C83.6536 12.28 83.2776 12.564 82.8216 12.772C82.3656 12.98 81.8616 13.084 81.3096 13.084C80.6456 13.084 80.0536 12.944 79.5336 12.664C79.0216 12.384 78.6176 11.984 78.3216 11.464C78.0336 10.944 77.8896 10.332 77.8896 9.628C77.8896 8.924 78.0336 8.316 78.3216 7.804C78.6096 7.284 79.0096 6.884 79.5216 6.604C80.0416 6.324 80.6376 6.184 81.3096 6.184C81.9736 6.184 82.5616 6.32 83.0736 6.592C83.5856 6.864 83.9856 7.256 84.2736 7.768C84.5616 8.272 84.7056 8.868 84.7056 9.556ZM82.3056 8.968C82.3056 8.68 82.2096 8.456 82.0176 8.296C81.8256 8.128 81.5856 8.044 81.2976 8.044C81.0096 8.044 80.7736 8.124 80.5896 8.284C80.4056 8.436 80.2856 8.664 80.2296 8.968H82.3056Z" fill="#F5F5F5"/>
<path d="M18.072 37H14.208L13.92 30.496C13.84 28.944 13.8 27.56 13.8 26.344C13.8 25.416 13.824 24.536 13.872 23.704L11.304 35.248H7.584L4.848 23.704C4.944 25.096 4.992 26.408 4.992 27.64C4.992 28.568 4.968 29.536 4.92 30.544L4.632 37H0.792L2.04 20.368H7.008L9.504 31.648L11.832 20.368H16.824L18.072 37ZM29.1872 37L28.3232 33.424H23.4752L22.6352 37H18.5552L23.5712 20.368H28.3472L33.3632 37H29.1872ZM24.1472 30.568H27.6512L25.8992 23.224L24.1472 30.568ZM39.9354 19.96C41.1834 19.96 42.2634 20.136 43.1754 20.488C44.1034 20.84 44.9434 21.376 45.6954 22.096L43.8714 24.232C42.7354 23.304 41.5194 22.84 40.2234 22.84C39.5354 22.84 38.9914 22.984 38.5914 23.272C38.1914 23.544 37.9914 23.944 37.9914 24.472C37.9914 24.84 38.0794 25.144 38.2554 25.384C38.4314 25.608 38.7434 25.824 39.1914 26.032C39.6394 26.24 40.3114 26.488 41.2074 26.776C42.9034 27.32 44.1514 27.992 44.9514 28.792C45.7514 29.576 46.1514 30.696 46.1514 32.152C46.1514 33.192 45.8874 34.112 45.3594 34.912C44.8314 35.696 44.0714 36.312 43.0794 36.76C42.0874 37.192 40.9114 37.408 39.5514 37.408C38.1914 37.408 36.9834 37.192 35.9274 36.76C34.8874 36.328 33.9914 35.752 33.2394 35.032L35.2314 32.848C35.8714 33.392 36.5274 33.8 37.1994 34.072C37.8874 34.344 38.6314 34.48 39.4314 34.48C40.2474 34.48 40.8874 34.304 41.3514 33.952C41.8314 33.584 42.0714 33.08 42.0714 32.44C42.0714 32.024 41.9834 31.68 41.8074 31.408C41.6314 31.12 41.3274 30.864 40.8954 30.64C40.4634 30.416 39.8394 30.176 39.0234 29.92C37.1834 29.36 35.8714 28.672 35.0874 27.856C34.3194 27.04 33.9354 26.008 33.9354 24.76C33.9354 23.8 34.1914 22.96 34.7034 22.24C35.2154 21.504 35.9274 20.944 36.8394 20.56C37.7514 20.16 38.7834 19.96 39.9354 19.96ZM59.1782 20.368L58.7942 23.392H54.6902V37H50.7542V23.392H46.4582V20.368H59.1782ZM70.9631 20.368L70.5551 23.176H64.6991V27.16H69.8111V29.92H64.6991V34.168H70.9631V37H60.7631V20.368H70.9631ZM78.8679 30.64H77.3319V37H73.3959V20.368H78.8439C81.1159 20.368 82.8199 20.784 83.9559 21.616C85.1079 22.448 85.6839 23.72 85.6839 25.432C85.6839 26.504 85.4279 27.4 84.9159 28.12C84.4039 28.824 83.5959 29.424 82.4919 29.92L86.7159 37H82.2759L78.8679 30.64ZM77.3319 27.928H78.9879C79.8679 27.928 80.5239 27.728 80.9559 27.328C81.4039 26.928 81.6279 26.296 81.6279 25.432C81.6279 24.632 81.3879 24.048 80.9079 23.68C80.4439 23.312 79.7239 23.128 78.7479 23.128H77.3319V27.928Z" fill="#F5F5F5"/>
</svg>
