<svg width="75" height="27" viewBox="0 0 75 27" fill="none" xmlns="http://www.w3.org/2000/svg">
<path d="M18.828 0.619998V17.432C18.828 20.288 18.048 22.472 16.488 23.984C14.952 25.496 12.828 26.252 10.116 26.252C7.236 26.252 4.932 25.448 3.204 23.84C1.5 22.232 0.648 19.916 0.648 16.892H7.632C7.656 18.884 8.388 19.88 9.828 19.88C11.124 19.88 11.772 19.064 11.772 17.432V0.619998H18.828ZM22.1754 13.256C22.1754 10.76 22.6914 8.54 23.7234 6.596C24.7794 4.628 26.2674 3.104 28.1874 2.024C30.1074 0.92 32.3154 0.368 34.8114 0.368C37.9794 0.368 40.6434 1.22 42.8034 2.924C44.9634 4.604 46.3554 6.896 46.9794 9.8H39.3834C38.9274 8.84 38.2914 8.108 37.4754 7.604C36.6834 7.1 35.7594 6.848 34.7034 6.848C33.0714 6.848 31.7634 7.436 30.7794 8.612C29.8194 9.764 29.3394 11.312 29.3394 13.256C29.3394 15.224 29.8194 16.796 30.7794 17.972C31.7634 19.124 33.0714 19.7 34.7034 19.7C35.7594 19.7 36.6834 19.448 37.4754 18.944C38.2914 18.44 38.9274 17.708 39.3834 16.748H46.9794C46.3554 19.652 44.9634 21.956 42.8034 23.66C40.6434 25.34 37.9794 26.18 34.8114 26.18C32.3154 26.18 30.1074 25.64 28.1874 24.56C26.2674 23.456 24.7794 21.932 23.7234 19.988C22.6914 18.02 22.1754 15.776 22.1754 13.256ZM66.5207 8.972C66.1127 8.3 65.5487 7.784 64.8287 7.424C64.1327 7.064 63.3047 6.884 62.3447 6.884C60.5687 6.884 59.1647 7.46 58.1327 8.612C57.1247 9.764 56.6207 11.312 56.6207 13.256C56.6207 15.44 57.1607 17.108 58.2407 18.26C59.3447 19.388 60.9407 19.952 63.0287 19.952C65.5007 19.952 67.2647 18.836 68.3207 16.604H61.2287V11.528H74.4047V18.368C73.8527 19.712 73.0367 20.972 71.9567 22.148C70.9007 23.324 69.5567 24.296 67.9247 25.064C66.2927 25.808 64.4327 26.18 62.3447 26.18C59.8007 26.18 57.5447 25.64 55.5767 24.56C53.6327 23.456 52.1207 21.932 51.0407 19.988C49.9847 18.02 49.4567 15.776 49.4567 13.256C49.4567 10.76 49.9847 8.54 51.0407 6.596C52.1207 4.628 53.6327 3.104 55.5767 2.024C57.5207 0.92 59.7647 0.368 62.3087 0.368C65.5007 0.368 68.1407 1.136 70.2287 2.672C72.3167 4.208 73.6127 6.308 74.1167 8.972H66.5207Z" fill="#FF9900"/>
</svg>
